<?xml version="1.0" encoding="iso-8859-1"?>
<!-- Generator: Adobe Illustrator 16.0.0, SVG Export Plug-In . SVG Version: 6.00 Build 0)  -->
<!DOCTYPE svg PUBLIC "-//W3C//DTD SVG 1.1//EN" "http://www.w3.org/Graphics/SVG/1.1/DTD/svg11.dtd">
<svg version="1.1" id="&#x56FE;&#x5C42;_1" xmlns="http://www.w3.org/2000/svg" xmlns:xlink="http://www.w3.org/1999/xlink" x="0px"
	 y="0px" width="490px" height="71px" viewBox="0 0 490 71" style="enable-background:new 0 0 490 71;" xml:space="preserve">
<g style="enable-background:new    ;">
	<path style="fill:#59BAD3;" d="M6.955,29.366h10.313V5.46h4.805v23.906h41.367v4.57H37.775
		c4.882,10.703,13.847,18.066,26.895,22.09c-1.329,1.758-2.52,3.359-3.574,4.805c-14.043-5.352-23.477-14.316-28.301-26.895H22.072
		v21.211c4.453-1.797,9.18-3.867,14.18-6.211c0,1.836,0.078,3.594,0.234,5.273c-4.648,1.914-9.102,3.926-13.359,6.035
		c-1.563,0.859-3.008,1.816-4.336,2.871l-3.516-4.512c1.328-1.055,1.992-2.48,1.992-4.277V33.937H6.955V29.366z M25.587,22.218
		c9.687-3.242,19.003-8.184,27.949-14.824l3.047,3.809c-9.141,6.68-18.711,11.797-28.711,15.352
		C27.247,25.226,26.485,23.78,25.587,22.218z"/>
	<path style="fill:#59BAD3;" d="M69.181,21.104c4.296,2.734,8.105,5.371,11.426,7.91c-0.586,0.586-1.641,1.875-3.164,3.867
		c-3.242-2.695-6.954-5.508-11.133-8.438L69.181,21.104z M74.572,37.921c1.641,0.742,3.242,1.426,4.805,2.051
		c-1.836,6.367-4.121,13.867-6.855,22.5l-4.98-1.875C70.275,53.292,72.619,45.733,74.572,37.921z M71.583,6.456
		c4.336,2.969,8.184,5.781,11.543,8.438c-1.25,1.445-2.344,2.715-3.281,3.809c-4.336-3.711-8.047-6.68-11.133-8.906L71.583,6.456z
		 M124.611,53.976c-1.133,1.406-2.246,2.793-3.34,4.16c-6.602-4.316-11.953-9.873-16.055-16.67V62.94h-4.629V41.29
		c-4.414,6.758-10.195,12.588-17.344,17.49c-1.406-1.602-2.578-2.832-3.516-3.691c8.457-4.922,15-10.566,19.629-16.934H82.892
		v-4.277h17.695v-7.324h4.629v7.324h18.105v4.277h-17.168C111.153,44.913,117.306,50.187,124.611,53.976z M97.306,17.354
		l3.105,3.164c-4.844,4.258-9.473,7.891-13.887,10.898c-0.82-1.25-1.777-2.5-2.871-3.75C88.81,24.464,93.361,21.026,97.306,17.354z
		 M84.474,9.327h37.734v9.727h-4.688V13.78H89.162v5.449h-4.688V9.327z M105.568,20.46l2.813-3.105
		c4.961,3.359,9.628,6.797,14.004,10.313l-3.105,3.633C114.982,27.472,110.412,23.858,105.568,20.46z"/>
	<path style="fill:#59BAD3;" d="M126.544,10.792h26.836c-0.86-1.66-1.68-3.125-2.461-4.395l4.395-1.758
		c1.113,1.934,2.197,3.984,3.252,6.152h25.635v3.867h-57.656V10.792z M134.455,62.647h-4.453v-27.48h51.211v19.922
		c0,4.805-2.266,7.207-6.797,7.207c-2.539,0-5.391-0.039-8.555-0.117c-0.234-1.328-0.547-2.871-0.938-4.629
		c3.593,0.273,6.347,0.41,8.262,0.41c2.383,0,3.574-1.191,3.574-3.574V38.917h-42.305V62.647z M136.564,18.526h38.027v14.297h-4.453
		v-1.875h-29.121v1.816h-4.453V18.526z M170.138,22.159h-29.121v5.156h29.121V22.159z M142.365,42.784h26.484V55.03h-22.266v2.52
		h-4.219V42.784z M164.63,51.397v-4.98h-18.047v4.98H164.63z"/>
	<path style="fill:#59BAD3;" d="M210.333,57.374c9.727,0.156,21.094,0.078,34.102-0.234c-0.43,1.289-0.977,2.832-1.641,4.629
		c-12.93,0.078-24.043,0-33.34-0.234c-6.641-0.078-11.29-2.363-13.945-6.855c-1.602,1.484-3.945,4.102-7.031,7.852l-2.402-4.863
		c3.438-3.32,5.937-5.703,7.5-7.148V30.772h-6.973v-4.336h11.484v25.078C200.47,55.382,204.552,57.335,210.333,57.374z
		 M192.873,6.749c1.992,2.422,4.727,6.113,8.203,11.074l-4.16,2.93c-3.164-4.961-5.762-8.789-7.793-11.484L192.873,6.749z
		 M206.291,21.808h14.707v-5.684h-17.461v-4.043h17.461V5.694h4.336v6.387h18.398v4.043h-18.398v5.684h14.707v16.816h-4.219v-1.816
		h-10.488v4.219l1.523-2.344c5.781,3.164,11.348,6.309,16.699,9.434l-2.695,4.16c-5.469-3.711-10.645-6.914-15.527-9.609v12.715
		h-4.336V40.265c-4.727,5.234-10.137,9.668-16.23,13.301c-0.664-1.016-1.719-2.285-3.164-3.809
		c7.109-3.516,13.085-7.832,17.93-12.949h-9.023v1.816h-4.219V21.808z M210.509,32.999h10.488v-7.383h-10.488V32.999z
		 M235.822,25.616h-10.488v7.383h10.488V25.616z"/>
	<path style="fill:#59BAD3;" d="M282.404,42.667h4.512c-2.735-1.836-5.117-4.023-7.148-6.563h-8.086
		c-1.602,2.266-4.16,4.473-7.676,6.621h3.867c0,5.898-0.938,10.176-2.813,12.832c-1.798,2.734-5.645,5.449-11.543,8.145
		c-0.781-1.25-1.758-2.578-2.93-3.984c5.625-2.344,9.101-4.512,10.43-6.504c1.483-1.719,2.245-5.059,2.285-10.02
		c-3.711,2.148-8.398,4.238-14.063,6.27c-0.781-1.367-1.739-2.754-2.871-4.16c9.258-2.656,15.703-5.723,19.336-9.199H247.6v-4.043
		h21.211c0.897-1.523,1.621-3.34,2.168-5.449h-18.516v-4.043h19.277c0.194-1.641,0.312-3.418,0.352-5.332h-21.738v-4.043h15.059
		c-1.484-1.836-3.047-3.574-4.688-5.215l3.047-2.695c2.109,1.758,4.102,3.691,5.977,5.801l-2.344,2.109h12.656
		c1.758-2.109,3.809-4.766,6.152-7.969l4.102,2.578c-1.563,1.836-3.204,3.633-4.922,5.391h15v4.043h-23.73
		c-0.078,1.914-0.216,3.691-0.41,5.332h21.328v4.043h-21.973c-0.43,2.07-0.978,3.887-1.641,5.449h29.18v4.043h-17.695
		c4.492,4.063,10.82,6.699,18.984,7.91c-0.938,1.602-1.836,3.223-2.695,4.863c-5.742-1.328-10.664-3.379-14.766-6.152v20.625h-4.57
		V42.667z"/>
	<path style="fill:#59BAD3;" d="M306.193,36.573c2.754-0.723,5.645-1.514,8.672-2.373V20.694h-7.852v-4.043h7.852V5.636h4.512
		v11.016h7.441v4.043h-7.441v12.217c2.383-0.703,4.844-1.436,7.383-2.197c0.039,1.953,0.078,3.496,0.117,4.629
		c-2.461,0.703-4.961,1.436-7.5,2.197v18.135c0,4.219-2.051,6.348-6.152,6.387c-1.328,0.039-3.125,0.039-5.391,0
		c-0.234-1.68-0.509-3.301-0.82-4.863c2.304,0.195,4.082,0.293,5.332,0.293c1.68,0,2.52-0.918,2.52-2.754V38.946
		c-2.656,0.84-5.352,1.709-8.086,2.607L306.193,36.573z M340.236,7.687l3.867-2.461c1.602,1.875,3.359,4.141,5.273,6.797
		l-3.779,2.461h15.908v26.074h-4.512v-2.813h-22.559c-0.527,10.313-3.32,18.809-8.379,25.488c-0.977-1.016-2.246-2.129-3.809-3.34
		c5.156-6.328,7.734-15.391,7.734-27.188V14.483h14.971C343.273,11.925,341.701,9.659,340.236,7.687z M334.553,18.702v14.824h22.441
		V18.702H334.553z"/>
	<path style="fill:#59BAD3;" d="M381.135,45.655l3.809,2.988c-5,4.492-10.254,8.828-15.762,13.008
		c-0.938-1.133-2.012-2.324-3.223-3.574C371.037,54.601,376.096,50.46,381.135,45.655z M407.502,29.542
		c5,4.023,10.117,8.438,15.352,13.242c-1.289,1.25-2.48,2.441-3.574,3.574c-1.621-1.602-3.262-3.184-4.922-4.746
		c-5.215,0.215-10.547,0.469-15.996,0.762v13.184c0,4.453-2.344,6.68-7.031,6.68c-1.914,0-4.434-0.039-7.559-0.117
		c-0.195-1.445-0.449-3.047-0.762-4.805c3.281,0.352,5.801,0.527,7.559,0.527c2.148,0,3.223-1.055,3.223-3.164v-12.07
		c-4.746,0.254-9.57,0.527-14.473,0.82c-2.227,0.117-4.434,0.371-6.621,0.762l-1.934-5.039c2.578-0.469,5.02-1.23,7.324-2.285
		c5.977-2.93,11.523-5.879,16.641-8.848c-6.797,0.527-12.5,0.996-17.109,1.406c-2.031,0.195-3.574,0.41-4.629,0.645l-1.875-4.922
		c1.875-0.469,3.633-1.152,5.273-2.051c4.902-2.734,9.814-5.967,14.736-9.697c-6.699,0.41-13.486,0.771-20.361,1.084
		c-0.273-1.367-0.625-2.734-1.055-4.102c18.633-0.703,35.176-1.777,49.629-3.223l0.879,4.16c-8.477,0.703-17.08,1.338-25.811,1.904
		l2.373,1.67c-6.133,4.102-11.797,7.559-16.992,10.371c8.75-0.488,15.996-0.957,21.738-1.406c3.906-2.5,7.52-5.02,10.84-7.559
		l3.809,3.105c-9.805,6.992-21.191,13.535-34.16,19.629c7.773-0.273,17.197-0.684,28.271-1.23c-1.953-1.797-3.916-3.555-5.889-5.273
		L407.502,29.542z M404.045,48.761l2.988-3.164c4.922,3.281,10.332,7.207,16.23,11.777l-3.457,3.809
		C414.338,56.651,409.084,52.511,404.045,48.761z"/>
	<path style="fill:#59BAD3;" d="M426.135,53.214c6.484-1.25,13.184-2.656,20.098-4.219c-0.156,2.031-0.234,3.438-0.234,4.219
		c-7.07,1.563-13.242,3.047-18.516,4.453L426.135,53.214z M433.752,40.909c3.125-0.43,7.129-1.016,12.012-1.758
		c-0.234,1.563-0.43,3.008-0.586,4.336c-4.883,0.664-10.469,1.504-16.758,2.52l-0.938-4.219c2.441-2.5,5.342-6.572,8.701-12.217
		c-4.063,0.273-6.982,0.479-8.76,0.615l-1.113-3.984c3.438-4.531,7.148-11.445,11.133-20.742l4.453,1.758
		c-3.789,7.422-7.246,13.633-10.371,18.633c2.559-0.039,4.863-0.098,6.914-0.176c1.172-2.09,2.402-4.355,3.691-6.797l4.395,1.934
		C442.072,28.585,437.814,35.284,433.752,40.909z M473.186,21.163c3.281,4.414,6.641,9.395,10.078,14.941
		c-1.367,0.781-2.813,1.66-4.336,2.637c-0.977-1.66-1.914-3.252-2.813-4.775c-1.816,0.117-3.691,0.225-5.625,0.322v19.863
		c0,2.383,0.879,3.574,2.637,3.574h2.871c1.914,0,3.008-0.977,3.281-2.93c0.313-2.344,0.508-4.883,0.586-7.617
		c1.289,0.547,2.852,1.113,4.688,1.699c-0.313,3.398-0.645,6.035-0.996,7.91c-0.547,3.398-2.598,5.098-6.152,5.098h-5.039
		c-4.258,0-6.387-2.441-6.387-7.324v-20.01c-2.188,0.117-4.453,0.254-6.797,0.41c-0.313,8.496-1.406,14.424-3.281,17.783
		c-2.227,4.297-6.387,7.852-12.48,10.664c-0.859-1.211-1.855-2.52-2.988-3.926c5.664-2.305,9.453-5.332,11.367-9.082
		c1.758-2.988,2.705-8.037,2.842-15.146c-0.801,0.059-1.611,0.107-2.432,0.146c-1.68,0.156-3.242,0.41-4.688,0.762l-1.992-4.57
		c1.68-0.703,3.027-1.641,4.043-2.813c2.93-3.496,5.684-7.305,8.262-11.426h-12.773v-4.16h18.691
		c-1.465-2.246-2.852-4.238-4.16-5.977l3.867-2.402c1.484,1.836,3.145,4.023,4.98,6.563l-2.783,1.816h17.842v4.16h-23.789
		l3.223,1.406c-3.242,4.375-6.426,8.398-9.551,12.07c7.363-0.254,14.131-0.518,20.303-0.791c-1.484-2.383-2.9-4.561-4.248-6.533
		L473.186,21.163z"/>
</g>
</svg>
