<svg width="600" height="100" xmlns="http://www.w3.org/2000/svg" xmlns:svg="http://www.w3.org/2000/svg">
    <g>
        <title>Layer 1</title>
        <g id="svg_1">
            <path id="svg_2" fill="#191919" d="m2.201017,45.366l10.313,0l0,-23.906l4.805,0l0,23.906l41.367,0l0,4.57l-25.665,0c4.882,10.703 13.847,18.066 26.895,22.09c-1.329,1.758 -2.52,3.359 -3.574,4.805c-14.043,-5.352 -23.477,-14.316 -28.301,-26.895l-10.723,0l0,21.211c4.453,-1.797 9.18,-3.867 14.18,-6.211c0,1.836 0.078,3.594 0.234,5.273c-4.648,1.914 -9.102,3.926 -13.359,6.035c-1.563,0.859 -3.008,1.816 -4.336,2.871l-3.516,-4.512c1.328,-1.055 1.992,-2.48 1.992,-4.277l0,-20.389l-10.312,0l0,-4.571zm18.632,-7.148c9.687,-3.242 19.003,-8.184 27.949,-14.824l3.047,3.809c-9.141,6.68 -18.711,11.797 -28.711,15.352c-0.625,-1.329 -1.387,-2.775 -2.285,-4.337z"/>
            <path id="svg_3" fill="#191919" d="m64.427017,37.104c4.296,2.734 8.105,5.371 11.426,7.91c-0.586,0.586 -1.641,1.875 -3.164,3.867c-3.242,-2.695 -6.954,-5.508 -11.133,-8.438l2.871,-3.339zm5.391,16.817c1.641,0.742 3.242,1.426 4.805,2.051c-1.836,6.367 -4.121,13.867 -6.855,22.5l-4.98,-1.875c2.733,-7.305 5.077,-14.864 7.03,-22.676zm-2.989,-31.465c4.336,2.969 8.184,5.781 11.543,8.438c-1.25,1.445 -2.344,2.715 -3.281,3.809c-4.336,-3.711 -8.047,-6.68 -11.133,-8.906l2.871,-3.341zm53.028,47.52c-1.133,1.406 -2.246,2.793 -3.34,4.16c-6.602,-4.316 -11.953,-9.873 -16.055,-16.67l0,21.474l-4.629,0l0,-21.65c-4.414,6.758 -10.195,12.588 -17.344,17.49c-1.406,-1.602 -2.578,-2.832 -3.516,-3.691c8.457,-4.922 15,-10.566 19.629,-16.934l-16.464,0l0,-4.277l17.695,0l0,-7.324l4.629,0l0,7.324l18.105,0l0,4.277l-17.168,0c5,6.758 11.153,12.032 18.458,15.821zm-27.305,-36.622l3.105,3.164c-4.844,4.258 -9.473,7.891 -13.887,10.898c-0.82,-1.25 -1.777,-2.5 -2.871,-3.75c5.157,-3.202 9.708,-6.64 13.653,-10.312zm-12.832,-8.027l37.734,0l0,9.727l-4.688,0l0,-5.274l-28.358,0l0,5.449l-4.688,0l0,-9.902zm21.094,11.133l2.813,-3.105c4.961,3.359 9.628,6.797 14.004,10.313l-3.105,3.633c-4.298,-3.829 -8.868,-7.443 -13.712,-10.841z"/>
            <path id="svg_4" fill="#191919" d="m121.790017,26.792l26.836,0c-0.86,-1.66 -1.68,-3.125 -2.461,-4.395l4.395,-1.758c1.113,1.934 2.197,3.984 3.252,6.152l25.635,0l0,3.867l-57.656,0l0,-3.866l-0.001,0zm7.911,51.855l-4.453,0l0,-27.48l51.211,0l0,19.922c0,4.805 -2.266,7.207 -6.797,7.207c-2.539,0 -5.391,-0.039 -8.555,-0.117c-0.234,-1.328 -0.547,-2.871 -0.938,-4.629c3.593,0.273 6.347,0.41 8.262,0.41c2.383,0 3.574,-1.191 3.574,-3.574l0,-15.469l-42.305,0l0,23.73l0.001,0zm2.109,-44.121l38.027,0l0,14.297l-4.453,0l0,-1.875l-29.121,0l0,1.816l-4.453,0l0,-14.238zm33.574,3.633l-29.121,0l0,5.156l29.121,0l0,-5.156zm-27.773,20.625l26.484,0l0,12.246l-22.266,0l0,2.52l-4.219,0l0,-14.766l0.001,0zm22.265,8.613l0,-4.98l-18.047,0l0,4.98l18.047,0z"/>
            <path id="svg_5" fill="#191919" d="m205.579017,73.374c9.727,0.156 21.094,0.078 34.102,-0.234c-0.43,1.289 -0.977,2.832 -1.641,4.629c-12.93,0.078 -24.043,0 -33.34,-0.234c-6.641,-0.078 -11.29,-2.363 -13.945,-6.855c-1.602,1.484 -3.945,4.102 -7.031,7.852l-2.402,-4.863c3.438,-3.32 5.937,-5.703 7.5,-7.148l0,-19.749l-6.973,0l0,-4.336l11.484,0l0,25.078c2.383,3.868 6.465,5.821 12.246,5.86zm-17.46,-50.625c1.992,2.422 4.727,6.113 8.203,11.074l-4.16,2.93c-3.164,-4.961 -5.762,-8.789 -7.793,-11.484l3.75,-2.52zm13.418,15.059l14.707,0l0,-5.684l-17.461,0l0,-4.043l17.461,0l0,-6.387l4.336,0l0,6.387l18.398,0l0,4.043l-18.398,0l0,5.684l14.707,0l0,16.816l-4.219,0l0,-1.816l-10.488,0l0,4.219l1.523,-2.344c5.781,3.164 11.348,6.309 16.699,9.434l-2.695,4.16c-5.469,-3.711 -10.645,-6.914 -15.527,-9.609l0,12.715l-4.336,0l0,-15.118c-4.727,5.234 -10.137,9.668 -16.23,13.301c-0.664,-1.016 -1.719,-2.285 -3.164,-3.809c7.109,-3.516 13.085,-7.832 17.93,-12.949l-9.023,0l0,1.816l-4.219,0l0,-16.816l-0.001,0zm4.218,11.191l10.488,0l0,-7.383l-10.488,0l0,7.383zm25.313,-7.383l-10.488,0l0,7.383l10.488,0l0,-7.383z"/>
            <path id="svg_6" fill="#191919" d="m277.650017,58.667l4.512,0c-2.735,-1.836 -5.117,-4.023 -7.148,-6.563l-8.086,0c-1.602,2.266 -4.16,4.473 -7.676,6.621l3.867,0c0,5.898 -0.938,10.176 -2.813,12.832c-1.798,2.734 -5.645,5.449 -11.543,8.145c-0.781,-1.25 -1.758,-2.578 -2.93,-3.984c5.625,-2.344 9.101,-4.512 10.43,-6.504c1.483,-1.719 2.245,-5.059 2.285,-10.02c-3.711,2.148 -8.398,4.238 -14.063,6.27c-0.781,-1.367 -1.739,-2.754 -2.871,-4.16c9.258,-2.656 15.703,-5.723 19.336,-9.199l-18.104,0l0,-4.043l21.211,0c0.897,-1.523 1.621,-3.34 2.168,-5.449l-18.516,0l0,-4.043l19.277,0c0.194,-1.641 0.312,-3.418 0.352,-5.332l-21.738,0l0,-4.043l15.059,0c-1.484,-1.836 -3.047,-3.574 -4.688,-5.215l3.047,-2.695c2.109,1.758 4.102,3.691 5.977,5.801l-2.344,2.109l12.656,0c1.758,-2.109 3.809,-4.766 6.152,-7.969l4.102,2.578c-1.563,1.836 -3.204,3.633 -4.922,5.391l15,0l0,4.043l-23.73,0c-0.078,1.914 -0.216,3.691 -0.41,5.332l21.328,0l0,4.043l-21.973,0c-0.43,2.07 -0.978,3.887 -1.641,5.449l29.18,0l0,4.043l-17.695,0c4.492,4.063 10.82,6.699 18.984,7.91c-0.938,1.602 -1.836,3.223 -2.695,4.863c-5.742,-1.328 -10.664,-3.379 -14.766,-6.152l0,20.625l-4.57,0l0,-20.684l-0.001,0z"/>
            <path id="svg_7" fill="#191919" d="m301.439017,52.573c2.754,-0.723 5.645,-1.514 8.672,-2.373l0,-13.506l-7.852,0l0,-4.043l7.852,0l0,-11.015l4.512,0l0,11.016l7.441,0l0,4.043l-7.441,0l0,12.217c2.383,-0.703 4.844,-1.436 7.383,-2.197c0.039,1.953 0.078,3.496 0.117,4.629c-2.461,0.703 -4.961,1.436 -7.5,2.197l0,18.135c0,4.219 -2.051,6.348 -6.152,6.387c-1.328,0.039 -3.125,0.039 -5.391,0c-0.234,-1.68 -0.509,-3.301 -0.82,-4.863c2.304,0.195 4.082,0.293 5.332,0.293c1.68,0 2.52,-0.918 2.52,-2.754l0,-15.793c-2.656,0.84 -5.352,1.709 -8.086,2.607l-0.587,-4.98zm34.043,-28.886l3.867,-2.461c1.602,1.875 3.359,4.141 5.273,6.797l-3.779,2.461l15.908,0l0,26.074l-4.512,0l0,-2.813l-22.559,0c-0.527,10.313 -3.32,18.809 -8.379,25.488c-0.977,-1.016 -2.246,-2.129 -3.809,-3.34c5.156,-6.328 7.734,-15.391 7.734,-27.188l0,-18.222l14.971,0c-1.678,-2.558 -3.25,-4.824 -4.715,-6.796zm-5.683,11.015l0,14.824l22.441,0l0,-14.824l-22.441,0z"/>
            <path id="svg_8" fill="#191919" d="m376.381017,61.655l3.809,2.988c-5,4.492 -10.254,8.828 -15.762,13.008c-0.938,-1.133 -2.012,-2.324 -3.223,-3.574c5.078,-3.476 10.137,-7.617 15.176,-12.422zm26.367,-16.113c5,4.023 10.117,8.438 15.352,13.242c-1.289,1.25 -2.48,2.441 -3.574,3.574c-1.621,-1.602 -3.262,-3.184 -4.922,-4.746c-5.215,0.215 -10.547,0.469 -15.996,0.762l0,13.184c0,4.453 -2.344,6.68 -7.031,6.68c-1.914,0 -4.434,-0.039 -7.559,-0.117c-0.195,-1.445 -0.449,-3.047 -0.762,-4.805c3.281,0.352 5.801,0.527 7.559,0.527c2.148,0 3.223,-1.055 3.223,-3.164l0,-12.07c-4.746,0.254 -9.57,0.527 -14.473,0.82c-2.227,0.117 -4.434,0.371 -6.621,0.762l-1.934,-5.039c2.578,-0.469 5.02,-1.23 7.324,-2.285c5.977,-2.93 11.523,-5.879 16.641,-8.848c-6.797,0.527 -12.5,0.996 -17.109,1.406c-2.031,0.195 -3.574,0.41 -4.629,0.645l-1.875,-4.922c1.875,-0.469 3.633,-1.152 5.273,-2.051c4.902,-2.734 9.814,-5.967 14.736,-9.697c-6.699,0.41 -13.486,0.771 -20.361,1.084c-0.273,-1.367 -0.625,-2.734 -1.055,-4.102c18.633,-0.703 35.176,-1.777 49.629,-3.223l0.879,4.16c-8.477,0.703 -17.08,1.338 -25.811,1.904l2.373,1.67c-6.133,4.102 -11.797,7.559 -16.992,10.371c8.75,-0.488 15.996,-0.957 21.738,-1.406c3.906,-2.5 7.52,-5.02 10.84,-7.559l3.809,3.105c-9.805,6.992 -21.191,13.535 -34.16,19.629c7.773,-0.273 17.197,-0.684 28.271,-1.23c-1.953,-1.797 -3.916,-3.555 -5.889,-5.273l3.106,-2.988zm-3.457,19.219l2.988,-3.164c4.922,3.281 10.332,7.207 16.23,11.777l-3.457,3.809c-5.468,-4.532 -10.722,-8.672 -15.761,-12.422z"/>
            <path id="svg_9" fill="#191919" d="m421.381017,69.214c6.484,-1.25 13.184,-2.656 20.098,-4.219c-0.156,2.031 -0.234,3.438 -0.234,4.219c-7.07,1.563 -13.242,3.047 -18.516,4.453l-1.348,-4.453zm7.617,-12.305c3.125,-0.43 7.129,-1.016 12.012,-1.758c-0.234,1.563 -0.43,3.008 -0.586,4.336c-4.883,0.664 -10.469,1.504 -16.758,2.52l-0.938,-4.219c2.441,-2.5 5.342,-6.572 8.701,-12.217c-4.063,0.273 -6.982,0.479 -8.76,0.615l-1.113,-3.984c3.438,-4.531 7.148,-11.445 11.133,-20.742l4.453,1.758c-3.789,7.422 -7.246,13.633 -10.371,18.633c2.559,-0.039 4.863,-0.098 6.914,-0.176c1.172,-2.09 2.402,-4.355 3.691,-6.797l4.395,1.934c-4.453,7.773 -8.711,14.472 -12.773,20.097zm39.434,-19.746c3.281,4.414 6.641,9.395 10.078,14.941c-1.367,0.781 -2.813,1.66 -4.336,2.637c-0.977,-1.66 -1.914,-3.252 -2.813,-4.775c-1.816,0.117 -3.691,0.225 -5.625,0.322l0,19.863c0,2.383 0.879,3.574 2.637,3.574l2.871,0c1.914,0 3.008,-0.977 3.281,-2.93c0.313,-2.344 0.508,-4.883 0.586,-7.617c1.289,0.547 2.852,1.113 4.688,1.699c-0.313,3.398 -0.645,6.035 -0.996,7.91c-0.547,3.398 -2.598,5.098 -6.152,5.098l-5.039,0c-4.258,0 -6.387,-2.441 -6.387,-7.324l0,-20.01c-2.188,0.117 -4.453,0.254 -6.797,0.41c-0.313,8.496 -1.406,14.424 -3.281,17.783c-2.227,4.297 -6.387,7.852 -12.48,10.664c-0.859,-1.211 -1.855,-2.52 -2.988,-3.926c5.664,-2.305 9.453,-5.332 11.367,-9.082c1.758,-2.988 2.705,-8.037 2.842,-15.146c-0.801,0.059 -1.611,0.107 -2.432,0.146c-1.68,0.156 -3.242,0.41 -4.688,0.762l-1.992,-4.57c1.68,-0.703 3.027,-1.641 4.043,-2.813c2.93,-3.496 5.684,-7.305 8.262,-11.426l-12.773,0l0,-4.16l18.691,0c-1.465,-2.246 -2.852,-4.238 -4.16,-5.977l3.867,-2.402c1.484,1.836 3.145,4.023 4.98,6.563l-2.783,1.816l17.842,0l0,4.16l-23.789,0l3.223,1.406c-3.242,4.375 -6.426,8.398 -9.551,12.07c7.363,-0.254 14.131,-0.518 20.303,-0.791c-1.484,-2.383 -2.9,-4.561 -4.248,-6.533l3.749,-2.342z"/>
        </g>
    </g>

</svg>
